<svg xmlns="http://www.w3.org/2000/svg" height="24" viewBox="0 -960 960 960" width="24"><path d="M720-235.385q25 0 42.5-17.5t17.5-42.5q0-25-17.5-42.5t-42.5-17.5q-25 0-42.5 17.5t-17.5 42.5q0 25 17.5 42.5t42.5 17.5Zm0 120q30 0 56-14t43-39q-23-14-48-20.5t-51-6.5q-26 0-51 6.5t-48 20.5q17 25 43 39t56 14ZM224.615-160q-26.846 0-45.731-18.884Q160-197.769 160-224.615v-510.77q0-26.846 18.884-45.731Q197.769-800 224.615-800h510.77q26.846 0 45.731 18.884Q800-762.231 800-735.385v238q-10.538-3.615-20.154-5.884-9.615-2.27-19.846-4.5v-227.616q0-9.23-7.692-16.923Q744.615-760 735.385-760h-510.77q-9.23 0-16.923 7.692Q200-744.615 200-735.385v510.77q0 9.23 7.692 16.923Q215.385-200 224.615-200h226.616q1.461 11.231 3.731 20.846 2.269 9.616 5.884 19.154H224.615ZM200-240v40-560V-507.769v-3V-240Zm100-69.231h158.385q2.23-10.23 6.038-19.846 3.808-9.615 7.962-20.154H300v40ZM300-460h263.231q19.692-13.846 38.807-23.462 19.116-9.615 41.039-15.077V-500H300v40Zm0-150.769h360v-40H300v40ZM720-75.384q-66.846 0-113.423-46.577T560-235.385q0-66.846 46.577-113.423T720-395.385q66.846 0 113.423 46.577T880-235.385q0 66.847-46.577 113.424Q786.846-75.384 720-75.384Z"/></svg>